:SAMPLES-PER-SECOND 30
:FRAME-RANGE 1-564
:FULLY-SPECIFIED
:DEGREES
124
root  34.4244 38.8638 135.997 -175.212 -16.7887 -176.173
RightUpLeg  -20.3255 -1.69388 2.81045
RightLeg  15.8432 -2.28774 0.637523
RightFoot  -2.29138 -0.0637373 0.608062
RightToes  1.21801e-010 1.2921e-014 -6.02303e-014
Spine  -5.61199 -3.31127 7.15169
Spine1  9.58692 -4.57325 3.99787
HEad  33.6224 29.976 0.764145
LeftShoulder1  1.28262 -1.1292 -22.8851
LeftArm  -2.33692 6.52725 -51.4289
LeftForeArm  35.0646 2.95891 -12.8041
LeftHand  -0.228911 1.49836 6.69531
RightShoulder  1.1765 0.0534126 29.0098
RightArm  -32.5873 -6.00111 45.6107
RightForeArm  66.1546 -4.80131 -0.328831
RightHand  0.0569573 -5.8786 -16.9061
LeftUpLeg  -8.255 4.48696 11.4486
LeftLeg  49.1628 6.64837 8.60195
LeftFoot  1.10082 1.14565 -10.5499
LeftToes  1.70735e-010 3.74918e-011 3.68705e-011
125
root  34.4312 38.9066 134.988 -175.379 -15.0372 -176.338
RightUpLeg  -18.7752 -1.68282 3.28795
RightLeg  16.4254 -0.635573 1.09892
RightFoot  -4.2255 -0.0350262 0.101568
RightToes  1.21801e-010 1.2921e-014 -6.02303e-014
Spine  -5.12444 -2.86802 7.70382
Spine1  9.20188 -3.91265 3.56507
HEad  33.3079 30.3613 0.94115
LeftShoulder1  1.2232 -0.940154 -22.7657
LeftArm  -2.2769 6.76218 -51.6267
LeftForeArm  34.1527 2.49853 -12.819
LeftHand  -0.227573 1.59743 6.81691
RightShoulder  1.42387 0.804899 28.6573
RightArm  -31.4255 -3.07591 45.3726
RightForeArm  65.6555 -4.90955 0.196345
RightHand  0.132134 -6.37529 -17.2867
LeftUpLeg  -11.7151 3.86095 9.91797
LeftLeg  51.3269 4.96694 7.07284
LeftFoot  -1.2342 0.996427 -11.1585
LeftToes  1.70735e-010 3.74918e-011 3.68705e-011
126
root  34.4173 38.9558 133.974 -175.543 -13.4122 -176.681
RightUpLeg  -17.0289 -2.40039 3.385
RightLeg  16.8349 1.54005 1.97285
RightFoot  -6.09066 -0.0169482 -0.531216
RightToes  1.21801e-010 1.2921e-014 -6.02303e-014
Spine  -4.86432 -2.52858 8.06702
Spine1  9.01215 -3.37365 2.84719
HEad  33.0241 31.2349 1.07916
LeftShoulder1  1.17821 -0.80375 -22.6184
LeftArm  -2.21133 7.25414 -51.8046
LeftForeArm  33.4723 1.60757 -12.829
LeftHand  -0.235862 1.50125 6.9105
RightShoulder  1.22004 0.230482 28.4816
RightArm  -31.011 1.91436 45.8897
RightForeArm  66.5637 -4.85221 0.0571838
RightHand  0.199656 -6.81784 -17.4535
LeftUpLeg  -15.0076 2.68611 8.00522
LeftLeg  51.7585 5.84849 8.35378
LeftFoot  -2.67872 0.634354 -8.1549
LeftToes  1.70735e-010 3.74918e-011 3.68705e-011
127
root  34.3839 39.0046 132.998 -175.591 -11.6403 -177.082
RightUpLeg  -15.4228 -2.5181 3.45873
RightLeg  17.1553 3.3602 2.25252
RightFoot  -7.73579 -0.0212165 -0.99086
RightToes  1.21801e-010 1.2921e-014 -6.02303e-014
Spine  -4.3556 -1.96522 8.50443
Spine1  8.33681 -2.59712 1.92152
HEad  32.249 31.8894 0.872594
LeftShoulder1  1.10439 -0.531663 -22.7324
LeftArm  -2.381 7.40098 -51.9236
LeftForeArm  33.8215 1.29967 -12.7504
LeftHand  -0.225856 1.46608 6.55228
RightShoulder  1.39967 0.834887 27.7935
RightArm  -30.3903 5.19631 46.4377
RightForeArm  65.7506 -4.91196 0.230936
RightHand  0.168205 -6.61365 -17.3661
LeftUpLeg  -18.2968 1.35184 6.30399
LeftLeg  50.7228 7.63944 10.3287
LeftFoot  -5.54885 0.438736 -8.00671
LeftToes  1.70735e-010 3.74918e-011 3.68705e-011
128
root  34.3302 39.0529 132.021 -175.656 -10.0584 -177.474
RightUpLeg  -13.6392 -2.8842 3.31077
RightLeg  17.1853 5.22473 2.70572
RightFoot  -9.2488 -0.0366476 -1.42114
RightToes  1.21801e-010 1.2921e-014 -6.02303e-014
Spine  -4.00208 -1.39506 8.95411
Spine1  7.8992 -1.83324 0.892263
HEad  31.0565 32.647 0.750213
LeftShoulder1  1.02611 -0.246879 -22.8405
LeftArm  -2.3029 7.38583 -51.9993
LeftForeArm  33.9742 1.2678 -12.7745
LeftHand  -0.228984 1.50389 6.70639
RightShoulder  1.45484 1.06701 27.2509
RightArm  -29.4422 8.66036 47.2187
RightForeArm  65.2197 -4.98914 0.569394
RightHand  0.141769 -6.43368 -17.3867
LeftUpLeg  -21.2933 -0.274781 5.02614
LeftLeg  47.9117 9.16661 11.1121
LeftFoot  -6.52415 0.368672 -7.82813
LeftToes  1.70735e-010 3.74918e-011 3.68705e-011
129
root  34.2564 39.0692 131.062 -175.571 -8.8529 -177.764
RightUpLeg  -11.985 -3.24421 3.10371
RightLeg  17.0859 6.74694 3.09036
RightFoot  -10.7887 -0.0640687 -1.84759
RightToes  1.21801e-010 1.2921e-014 -6.02303e-014
Spine  -3.75026 -0.94829 9.46127
Spine1  7.41763 -1.2558 -0.0680035
HEad  29.8273 33.8663 0.626263
LeftShoulder1  0.949094 0.0265645 -22.9024
LeftArm  -2.53718 7.9105 -52.0376
LeftForeArm  34.2748 0.739624 -12.6513
LeftHand  -0.250743 1.23458 6.91756
RightShoulder  2.04006 3.05796 26.0563
RightArm  -28.4837 9.9594 47.8413
RightForeArm  62.8688 -5.17195 1.14837
RightHand  0.142404 -6.4442 -17.2979
LeftUpLeg  -24.2621 -2.234 4.3092
LeftLeg  43.8593 10.3362 10.8434
LeftFoot  -7.32946 0.322152 -7.93668
LeftToes  1.70735e-010 3.74918e-011 3.68705e-011
